<svg id="Layer_1" fill="#fff" enable-background="new 0 0 512 512" height="61" viewBox="0 0 512 512" width="60" xmlns="http://www.w3.org/2000/svg"><g><path d="m420.215 149.553c-2.989 2.868-6.972 6.151-11.419 9.125-1.198.801-2.002 2.087-2.161 3.52-4.899 44.118-48.549 65.742-92.768 53.756-1.648-.447-3.421.003-4.66 1.179-32.715 31.032-74.796 29.988-106.419.005-1.24-1.176-3.013-1.631-4.663-1.183-44.881 12.184-87.914-10.219-92.76-53.76-.16-1.435-.968-2.719-2.167-3.524-4.427-2.974-8.497-6.332-11.435-9.13-2.042-1.944-5.309-1.796-7.172.32-24.159 27.427-35.501 58.914-35.501 89.459 0 86.048 90.102 272.68 206.91 272.68 116.768 0 206.91-186.566 206.91-272.68 0-30.52-11.325-62.015-35.505-89.465-1.87-2.124-5.148-2.261-7.19-.302zm-68.215 122.447c0-8.874 7.194-16 16-16 8.804 0 16 7.124 16 16v8c0 8.84-7.16 16-16 16s-16-7.16-16-16zm-56 80c0-8.874 7.194-16 16-16 8.804 0 16 7.124 16 16v8c0 8.84-7.16 16-16 16s-16-7.16-16-16zm-56-80c0-8.874 7.194-16 16-16 8.804 0 16 7.124 16 16v8c0 8.84-7.16 16-16 16s-16-7.16-16-16zm0 144c0-8.874 7.194-16 16-16 8.804 0 16 7.124 16 16v8c0 8.84-7.16 16-16 16s-16-7.16-16-16zm-56-64c0-8.874 7.194-16 16-16 8.804 0 16 7.124 16 16v8c0 8.84-7.16 16-16 16s-16-7.16-16-16zm-56-80c0-8.874 7.194-16 16-16 8.804 0 16 7.124 16 16v8c0 8.84-7.16 16-16 16s-16-7.16-16-16z"/><path d="m138.65 140.35c-.419 1.818-.758 3.352-1.08 5.45-3.74 24.08 9.25 33.5 15.27 36.51 19.99 9.99 41.64 3.33 57.65-6.25 26.727 42.651 64.259 42.657 91.02 0 16.01 9.58 37.66 16.24 57.65 6.25 6.02-3.01 19.01-12.43 15.26-36.52-.293-2.008-.653-3.631-1.07-5.44 17.865-5.688 34.65-17.595 34.65-36.35 0-17.89-18.7-27.24-24.84-30.31-32.52-16.256-74.232-22.227-100.865-24.42-.096-.337-.187-.688-.285-1.02-14.06-47.56-48.19-48.25-50.01-48.25-8.837 0-16 7.163-16 16s7.163 16 16 16c0 0-.2.02-.56-.01.78.1 5.73.99 10.9 7.13 11.342 13.394 13.617 38.666 13.659 56.367.021 8.68-6.657 16.146-15.329 16.5-9.145.372-16.67-6.925-16.67-15.987 0-13.207-1.165-28.781-5.555-41.647-.769-2.253-2.99-3.672-5.353-3.383-25.506 3.127-57.907 9.543-84.251 22.72-6.141 3.07-24.841 12.42-24.841 30.31 0 18.76 16.793 30.665 34.65 36.35z"/></g></svg>