<svg width="141" height="142" viewBox="0 0 141 142" fill="none" xmlns="http://www.w3.org/2000/svg">
<g id="curve shape">
<path id="Vector 9" d="M87 133C87 133 91.6098 137 99.8049 133C108 129 108 122 108 122" stroke="#139AB8"/>
<path id="Vector 16" d="M14 38C14 38 9.6653 38.5197 7.62225 44.7198C5.5792 50.9199 8.00002 53 8.00002 53" stroke="#139AB8"/>
<path id="Vector 15" d="M8.00001 84C8.00001 84 2.61031 86.4915 5.06969 94.8144C7.52907 103.137 14.5 104.5 14.5 104.5" stroke="#139AB8"/>
<path id="Vector 14" d="M36 126C36 126 36.171 132.258 44.0199 134.718C51.8688 137.178 56.5 132.5 56.5 132.5" stroke="#139AB8"/>
<path id="Vector 13" d="M103.5 16.5C103.5 16.5 103.404 9.92122 96.6906 6.93017C89.9774 3.93911 85 8 85 8" stroke="#139AB8"/>
<path id="Vector 12" d="M133.5 53C133.5 53 136.763 49.8856 133.843 44.0131C130.924 38.1407 125.5 38 125.5 38" stroke="#139AB8"/>
<path id="Vector 11" d="M129 100.5C129 100.5 133.315 99.4698 135.272 93.2676C137.23 87.0655 133.5 84 133.5 84" stroke="#139AB8"/>
<path id="Vector 10" d="M54 8C54 8 51.3535 4.63654 44.0417 7.18708C36.7299 9.73762 36 16 36 16" stroke="#139AB8"/>
<path id="Vector 1" d="M54 8V8C63.3606 14.341 75.6395 14.341 85 8V8" stroke="#139AB8"/>
<path id="Vector 8" d="M129.345 100.425V100.425C118.317 102.545 109.809 111.363 108.084 122.46L108 123" stroke="#139AB8"/>
<path id="Vector 7" d="M35.9203 126.345V126.345C33.7852 115.242 25.1027 106.56 14 104.425V104.425" stroke="#139AB8"/>
<path id="Vector 6" d="M103.425 16V16C105.56 27.1027 114.242 35.7852 125.345 37.9203V37.9203" stroke="#139AB8"/>
<path id="Vector 5" d="M14 37.9203V37.9203C25.1027 35.7852 33.7852 27.1027 35.9203 16V16" stroke="#139AB8"/>
<path id="Vector 4" d="M8 84V84C14.341 74.6395 14.341 62.3605 8 53V53" stroke="#139AB8"/>
<path id="Vector 3" d="M133.5 53V53C127.159 62.3605 127.159 74.6395 133.5 84V84" stroke="#139AB8"/>
<path id="Vector 2" d="M87 133L86.4318 132.597C77.4776 126.242 65.4951 126.203 56.5 132.5V132.5" stroke="#139AB8"/>
</g>
</svg>
