<svg width="760" height="2677" viewBox="0 0 760 2677" fill="none" xmlns="http://www.w3.org/2000/svg">
 <defs>
 <clipPath id="totbg" clipPathUnits="objectBoundingBox" transform="scale(0.00131578947,0.00037355248)">

<g clip-path="url(#clip0)">
<path fill-rule="evenodd" clip-rule="evenodd" d="M2216.16 301.7C2215.15 284.5 2214.13 267.4 2213.12 250.2V218.5H2211.3C2206.84 143.2 2202.38 67.9 2197.92 -7.40005C1718.71 -1.20005 1239.41 4.89995 760.202 10.9C750.474 10.8 745.104 1.39995 735.376 3.89995C726.357 6.19995 726.053 17.9 717.136 19.9C703.152 23 703.76 4.89995 693.829 2.89995C682.682 0.599952 675.893 11.9 666.368 13.8C657.552 15.6 644.277 4.99995 635.36 3.19995C623.504 0.899951 625.936 16.2 616.309 17C604.554 18 600.197 2.79995 592.091 1.09995C584.997 -0.400048 578.512 12.9 569.797 13.6C557.84 14.6 555.813 -0.100049 544.464 5.09995C537.269 8.39995 535.445 23.3 523.082 20.4C514.57 18.4 516.192 6.79995 508.389 3.79995C495.52 -1.10005 491.669 16.3 479.104 14C470.187 12.4 456.405 1.69995 448.4 3.29995C440.496 4.89995 441.002 14.7 433.402 13.5C429.349 12.9 428.539 6.29995 423.371 3.99995C413.744 -0.200049 402.496 10.8 392.16 11C382.331 10.9 376.859 1.49995 367.131 3.99995C358.112 6.29995 357.605 18 348.688 20C334.704 23.1 335.312 4.99995 325.381 2.99995C314.235 0.69995 304 12.7 293.664 13.5C284.747 14.2 275.93 4.99995 266.912 3.19995C255.056 0.799951 258.603 18.2 249.28 16C242.085 14.3 244.314 4.79995 236.309 3.09995C229.216 1.59995 217.36 9.39995 210.267 10.9C198.512 13.3 195.066 -1.60005 183.818 3.59995C176.624 6.89995 170.848 13.9 162.336 13.1C155.952 12.5 149.872 4.39995 141.968 1.39995C129.099 -3.50005 123.323 16.1 110.757 13.8C101.84 12.2 87.9572 1.49995 80.0532 3.19995C72.1492 4.79995 72.4532 17.7 64.9545 16C58.5705 14.6 59.9892 6.19995 54.7199 3.89995C45.0932 -0.300048 34.0479 10.7 23.3066 10.9C13.5786 10.8 8.20788 1.39995 -1.52012 3.89995C-3.24278 4.29995 -4.6615 5.09995 -5.8775 6.09995C-659.68 -0.400049 -1313.48 -6.80005 -1967.29 -13.3C-1965.56 64 -1963.84 141.3 -1962.12 218.6H-1969.11V2528.1H2213.12V301.7C2214.13 301.7 2215.15 301.7 2216.16 301.7Z" fill="black"/>
</g>
<g clip-path="url(#clip1)">
<path fill-rule="evenodd" clip-rule="evenodd" d="M2000 402L-1647.2 409.8L-1645 2647H330.5C334 2647.3 337.5 2647.7 338.9 2649C343 2652.9 344.4 2654.7 346.4 2654.9C350.1 2655.2 350.1 2651.5 354 2652.6C357.3 2653.5 358.8 2659 362.1 2658.9C365.5 2658.8 368.8 2650.3 371.8 2649.9C373.1 2649.7 373.8 2650 374.9 2651.2C375.9 2652.3 376.6 2655.1 376.7 2656.1C377.2 2662.5 371.8 2673.1 376.7 2676.1C380.7 2678.5 384 2675.2 383.8 2671C383.6 2665.8 382.3 2662.4 381.8 2659.2C381 2653.9 382.8 2650.6 385.3 2649.4C388.7 2647.7 393.4 2648.1 396.3 2652.5C399.7 2657.7 399.6 2660.4 403 2660.4C406.7 2660.4 407.2 2656.3 408.9 2651.7C409.4 2650.4 410.8 2646.8 418.7 2647H418.6H2000V402Z" fill="black"/>
</g>
<defs>
<clipPath id="clip0">
<rect width="760" height="2500" fill="white"/>
</clipPath>
<clipPath id="clip1">
<rect width="760" height="2000" fill="white" transform="translate(0 677)"/>
</clipPath>
</defs>
</clipPath>
</defs>
</svg>
