<svg width="760" height="28" viewBox="0 0 760 28" fill="none" xmlns="http://www.w3.org/2000/svg">
<defs>
<clipPath id="botbg" clipPathUnits="objectBoundingBox" transform="scale(0.00131578947,0.03571428571)">

<path fill-rule="evenodd" clip-rule="evenodd" d="M1922.85 -2130.98C1922.85 -2136.51 1918.36 -2140.99 1912.83 -2140.98L-1714.36 -2133.58C-1719.88 -2133.57 -1724.35 -2129.09 -1724.34 -2123.57L-1722.16 -10.5074C-1722.16 -4.98858 -1717.68 -0.517676 -1712.16 -0.517676H253.349C256.849 -0.231642 260.349 0.149735 261.749 1.38921C265.849 5.10765 267.249 6.82375 269.249 7.01444C272.949 7.30047 272.949 3.77292 276.849 4.82171C280.149 5.67981 281.649 10.9236 284.949 10.8282C288.349 10.7329 291.649 2.6286 294.649 2.24722C295.949 2.05653 296.649 2.34261 297.749 3.48674C298.749 4.53553 299.449 7.20532 299.549 8.15876C300.049 14.2608 294.649 24.3673 299.549 27.2276C303.549 29.5159 306.849 26.3695 306.649 22.365C306.449 17.4071 305.149 14.1653 304.649 11.1143C303.849 6.06104 305.649 2.91463 308.149 1.7705C311.549 0.149642 316.249 0.531113 319.149 4.72627C322.549 9.68418 322.449 12.2584 325.849 12.2584C329.549 12.2584 330.049 8.34931 331.749 3.96347C332.249 2.72399 333.649 -0.708364 341.549 -0.517676H341.449H1912.85C1918.37 -0.517676 1922.85 -4.99483 1922.85 -10.5177V-2130.98Z" fill="black"/>
</clipPath>
</defs>
</svg>
